<?xml version="1.0" encoding="utf-8"?>
<!-- Generator: Adobe Illustrator 18.0.0, SVG Export Plug-In . SVG Version: 6.00 Build 0)  -->
<!DOCTYPE svg PUBLIC "-//W3C//DTD SVG 1.1//EN" "http://www.w3.org/Graphics/SVG/1.1/DTD/svg11.dtd">
<svg version="1.1" id="Layer_1" xmlns="http://www.w3.org/2000/svg" xmlns:xlink="http://www.w3.org/1999/xlink" x="0px" y="0px"
	 viewBox="0 0 238.1 238.1" enable-background="new 0 0 238.1 238.1" xml:space="preserve">
<g>
	<path fill="#1F1E53" d="M65.2,47.9v-22h3.3c1.5,0,2.6,0.1,3.5,0.3c0.9,0.2,1.6,0.6,2.2,1.2c0.6,0.6,1.1,1.3,1.5,2.1
		c0.4,0.8,0.6,1.7,0.6,2.6c0,1.6-0.6,2.9-1.8,4c1.2,0.4,2.1,1.1,2.8,2.1c0.7,1,1,2.1,1,3.5c0,1.7-0.6,3.2-1.8,4.4
		c-0.7,0.7-1.6,1.2-2.5,1.5c-1,0.3-2.2,0.4-3.8,0.4H65.2z M68.5,35.3h1c1.2,0,2.1-0.3,2.7-0.8c0.6-0.5,0.9-1.4,0.9-2.4
		c0-1-0.3-1.8-0.9-2.4c-0.6-0.5-1.4-0.8-2.6-0.8h-1.2V35.3z M68.5,44.8h2.1c1.5,0,2.6-0.3,3.3-0.9c0.7-0.6,1.1-1.4,1.1-2.4
		c0-1-0.4-1.8-1.1-2.4c-0.7-0.6-1.9-1-3.7-1h-1.7V44.8z"/>
	<path fill="#1F1E53" d="M92.1,41.7h-10c0.1,1.1,0.5,2,1.1,2.7c0.7,0.7,1.5,1,2.5,1c0.8,0,1.5-0.2,2-0.6c0.5-0.4,1.1-1.1,1.8-2.1
		l2.7,1.5c-0.4,0.7-0.9,1.3-1.3,1.8c-0.5,0.5-1,0.9-1.5,1.3c-0.5,0.3-1.1,0.6-1.7,0.7c-0.6,0.2-1.3,0.2-2,0.2c-2.1,0-3.7-0.7-5-2
		c-1.3-1.3-1.9-3.1-1.9-5.3c0-2.2,0.6-4,1.8-5.3c1.2-1.3,2.9-2,4.9-2c2,0,3.7,0.7,4.9,2c1.2,1.3,1.8,3.1,1.8,5.4L92.1,41.7z
		 M88.8,39.1c-0.4-1.7-1.5-2.6-3.2-2.6c-0.4,0-0.8,0.1-1.1,0.2c-0.3,0.1-0.7,0.3-0.9,0.5c-0.3,0.2-0.5,0.5-0.7,0.8
		c-0.2,0.3-0.4,0.7-0.5,1.1H88.8z"/>
	<path fill="#1F1E53" d="M101.2,36.4l-2.7,1.4c-0.4-0.8-0.9-1.3-1.6-1.3c-0.3,0-0.5,0.1-0.8,0.3c-0.2,0.2-0.3,0.4-0.3,0.7
		c0,0.5,0.6,1.1,1.9,1.6c1.7,0.7,2.8,1.4,3.4,2s0.9,1.4,0.9,2.5c0,1.3-0.5,2.5-1.5,3.4c-1,0.9-2.1,1.3-3.5,1.3c-2.3,0-4-1.1-5-3.4
		l2.7-1.3c0.4,0.7,0.7,1.1,0.9,1.3c0.4,0.4,0.9,0.5,1.4,0.5c1.1,0,1.6-0.5,1.6-1.5c0-0.6-0.4-1.1-1.3-1.6c-0.3-0.2-0.6-0.3-1-0.5
		s-0.7-0.3-1-0.5c-0.9-0.5-1.6-0.9-2-1.4c-0.5-0.6-0.7-1.3-0.7-2.2c0-1.2,0.4-2.2,1.2-3c0.8-0.8,1.9-1.2,3.1-1.2
		C99,33.6,100.3,34.6,101.2,36.4z"/>
	<path fill="#1F1E53" d="M106.5,37v10.9h-3.2V37H102v-3h1.4v-5.1h3.2V34h2.5v3H106.5z"/>
	<path fill="#1F1E53" d="M127,29.2l-2.7,1.6c-0.5-0.9-1-1.4-1.4-1.7c-0.5-0.3-1.1-0.5-1.8-0.5c-0.9,0-1.7,0.3-2.3,0.8
		c-0.6,0.5-0.9,1.2-0.9,1.9c0,1.1,0.8,1.9,2.4,2.6l2.2,0.9c1.8,0.7,3.1,1.6,3.9,2.6c0.8,1,1.2,2.3,1.2,3.8c0,2-0.7,3.7-2,5
		c-1.4,1.3-3,2-5.1,2c-1.9,0-3.5-0.6-4.7-1.7c-1.2-1.1-2-2.7-2.3-4.8l3.4-0.7c0.2,1.3,0.4,2.2,0.8,2.7c0.7,1,1.7,1.4,3,1.4
		c1,0,1.9-0.3,2.6-1s1-1.6,1-2.6c0-0.4-0.1-0.8-0.2-1.2c-0.1-0.4-0.3-0.7-0.6-1c-0.3-0.3-0.6-0.6-1-0.8c-0.4-0.3-0.9-0.5-1.4-0.7
		l-2.1-0.9c-3-1.3-4.5-3.1-4.5-5.6c0-1.7,0.6-3,1.9-4.1c1.3-1.1,2.8-1.7,4.7-1.7C123.6,25.5,125.6,26.7,127,29.2z"/>
	<path fill="#1F1E53" d="M128.6,40.9c0-2,0.7-3.7,2.2-5.1c1.4-1.4,3.2-2.1,5.3-2.1c2.1,0,3.8,0.7,5.3,2.1c1.4,1.4,2.1,3.2,2.1,5.2
		c0,2.1-0.7,3.8-2.2,5.2c-1.4,1.4-3.2,2.1-5.3,2.1c-2.1,0-3.8-0.7-5.2-2.1C129.3,44.8,128.6,43,128.6,40.9z M131.9,40.9
		c0,1.4,0.4,2.5,1.1,3.3c0.8,0.8,1.8,1.2,3,1.2c1.3,0,2.3-0.4,3-1.2c0.8-0.8,1.1-1.9,1.1-3.2s-0.4-2.4-1.1-3.2
		c-0.8-0.8-1.8-1.2-3-1.2c-1.2,0-2.2,0.4-3,1.2C132.2,38.6,131.9,39.6,131.9,40.9z"/>
	<path fill="#1F1E53" d="M171.4,47.6c0,0.7,0,1.2-0.1,1.7c0,0.5-0.1,0.9-0.2,1.3c-0.2,1-0.7,1.9-1.3,2.7c-1.3,1.4-3,2.2-5.2,2.2
		c-1.9,0-3.4-0.5-4.6-1.5c-1.2-1-1.9-2.5-2.1-4.3h3.2c0.1,0.7,0.3,1.2,0.6,1.6c0.7,0.9,1.6,1.3,2.9,1.3c2.3,0,3.5-1.4,3.5-4.3v-1.9
		c-1.3,1.3-2.7,2-4.4,2c-1.9,0-3.4-0.7-4.7-2.1c-1.2-1.4-1.8-3.1-1.8-5.2c0-2,0.6-3.7,1.7-5.2c1.2-1.5,2.8-2.3,4.8-2.3
		c1.8,0,3.2,0.7,4.4,2V34h3.2V47.6z M168.3,41c0-1.3-0.4-2.4-1.1-3.2c-0.7-0.8-1.7-1.2-2.8-1.2c-1.2,0-2.2,0.5-2.9,1.4
		c-0.6,0.8-1,1.9-1,3.1c0,1.3,0.3,2.3,1,3.1c0.7,0.9,1.7,1.3,2.9,1.3c1.2,0,2.2-0.4,2.9-1.3C167.9,43.3,168.3,42.3,168.3,41z"/>
	<path fill="#1F1E53" d="M108.3,76.7c0-3.5,1.3-6.5,3.8-9c2.5-2.5,5.6-3.8,9.2-3.8c3.5,0,6.6,1.3,9.1,3.8c2.5,2.5,3.8,5.6,3.8,9.1
		c0,3.6-1.3,6.6-3.8,9.1c-2.6,2.5-5.6,3.7-9.3,3.7c-3.2,0-6.1-1.1-8.6-3.3C109.7,83.8,108.3,80.6,108.3,76.7z M112,76.7
		c0,2.7,0.9,5,2.8,6.7c1.8,1.8,3.9,2.6,6.3,2.6c2.6,0,4.8-0.9,6.6-2.7c1.8-1.8,2.7-4,2.7-6.6c0-2.6-0.9-4.9-2.6-6.6
		c-1.8-1.8-3.9-2.7-6.5-2.7c-2.6,0-4.8,0.9-6.5,2.7C112.9,71.9,112,74.1,112,76.7z"/>
	<path fill="#1F1E53" d="M144,78.6l7.7,10.6h-4.6L140.1,79h-0.7v10.1h-3.7V64.4h4.4c3.3,0,5.6,0.6,7.1,1.8c1.6,1.4,2.4,3.2,2.4,5.4
		c0,1.8-0.5,3.3-1.5,4.5C147,77.4,145.7,78.2,144,78.6z M139.4,75.8h1.2c3.5,0,5.3-1.4,5.3-4.1c0-2.5-1.7-3.8-5.2-3.8h-1.3V75.8z"/>
	<path fill="#1F1E53" d="M156.3,85.6V39.4c0-2-0.4-3.4-1.2-4.2c-0.9-1-2.2-1.5-3.8-1.5c-1.4,0-2.7,0.6-3.8,1.7V34h-3.2v13.9h3.2
		v-6.7c0-1.7,0.2-2.9,0.7-3.6c0.4-0.7,1.2-1.1,2.3-1.1c1,0,1.7,0.3,2,0.8c0.4,0.5,0.6,1.5,0.6,2.8v45.5v3.5h3.2h7.5v-3.5H156.3z"/>
	<path fill="#1F1E53" d="M165.4,89.2V64.4h5.2c2.5,0,4.5,0.2,5.9,0.7c1.6,0.5,3,1.3,4.2,2.5c2.6,2.3,3.8,5.4,3.8,9.2
		c0,3.8-1.3,6.9-4,9.2c-1.3,1.2-2.7,2-4.2,2.5c-1.4,0.5-3.3,0.7-5.8,0.7H165.4z M169.1,85.6h1.7c1.7,0,3.1-0.2,4.2-0.5
		c1.1-0.4,2.1-1,3-1.8c1.8-1.7,2.8-3.9,2.8-6.6c0-2.7-0.9-4.9-2.7-6.6c-1.6-1.5-4-2.3-7.2-2.3h-1.7V85.6z"/>
	<polygon fill="#1F1E53" points="48.1,50.9 52.8,50.9 67.6,85.1 81.7,59.5 95.2,85.1 110.9,50.9 115.6,50.9 95.1,94.9 81.6,69.3 
		67.5,94.9 	"/>
	<path fill="#1F1E53" d="M121.8,52.2c0-0.2,0.1-0.4,0.3-0.6c0.2-0.2,0.4-0.3,0.6-0.3c0.2,0,0.4,0.1,0.6,0.3c0.2,0.2,0.3,0.4,0.3,0.6
		c0,0.2-0.1,0.4-0.3,0.6c-0.2,0.2-0.4,0.3-0.6,0.3c-0.2,0-0.4-0.1-0.6-0.3S121.8,52.5,121.8,52.2z M123.4,54.6v5.7H122v-5.7H123.4z"
		/>
	<path fill="#1F1E53" d="M124.3,54.6h1.3v0.5c0.5-0.5,1-0.7,1.6-0.7c0.7,0,1.2,0.2,1.5,0.6c0.3,0.4,0.5,0.9,0.5,1.7v3.5h-1.3v-3.2
		c0-0.6-0.1-0.9-0.2-1.2c-0.2-0.2-0.4-0.3-0.8-0.3c-0.4,0-0.7,0.1-0.9,0.4c-0.2,0.3-0.3,0.8-0.3,1.5v2.7h-1.3V54.6z"/>
	<path fill="#1F1E53" d="M134.5,55.8v4.5h-1.3v-4.5h-0.6v-1.2h0.6v-2.1h1.3v2.1h1v1.2H134.5z"/>
	<path fill="#1F1E53" d="M135.9,50.4h1.3v4.6c0.5-0.4,1-0.6,1.5-0.6c0.6,0,1.2,0.2,1.5,0.6c0.3,0.4,0.5,0.9,0.5,1.7v3.5h-1.3v-3.4
		c0-0.5-0.1-0.8-0.2-1c-0.2-0.2-0.4-0.3-0.8-0.3c-0.5,0-0.8,0.1-1,0.4c-0.2,0.3-0.3,0.8-0.3,1.5v2.7h-1.3V50.4z"/>
	<path fill="#1F1E53" d="M146.9,57.7h-4.1c0,0.5,0.2,0.8,0.5,1.1c0.3,0.3,0.6,0.4,1,0.4c0.3,0,0.6-0.1,0.8-0.2
		c0.2-0.2,0.4-0.4,0.7-0.9l1.1,0.6c-0.2,0.3-0.4,0.5-0.5,0.7c-0.2,0.2-0.4,0.4-0.6,0.5c-0.2,0.1-0.5,0.2-0.7,0.3
		c-0.3,0.1-0.5,0.1-0.8,0.1c-0.8,0-1.5-0.3-2-0.8c-0.5-0.5-0.8-1.3-0.8-2.2c0-0.9,0.2-1.6,0.7-2.2c0.5-0.5,1.2-0.8,2-0.8
		c0.8,0,1.5,0.3,2,0.8c0.5,0.5,0.7,1.3,0.7,2.2L146.9,57.7z M145.6,56.7c-0.2-0.7-0.6-1-1.3-1c-0.2,0-0.3,0-0.4,0.1
		s-0.3,0.1-0.4,0.2c-0.1,0.1-0.2,0.2-0.3,0.3c-0.1,0.1-0.1,0.3-0.2,0.4H145.6z"/>
</g>
<g opacity="0.7">
	<polygon opacity="0.9" fill="#666666" enable-background="new    " points="194.9,114.4 186.2,114.4 190.7,117.6 186.2,120.8 
		194.9,120.8 193.7,117.6 	"/>
	<polygon fill="#A7A8A7" points="226.2,114.4 217.6,114.4 218.8,117.6 217.6,120.8 226.2,120.8 221.8,117.6 	"/>
	<circle fill="#FFFFFF" cx="211.5" cy="117.3" r="7.8"/>
	<circle fill="#A7A8A7" cx="201" cy="117.3" r="8"/>
	<circle opacity="0.9" fill="#666666" enable-background="new    " cx="211.5" cy="117.3" r="8"/>
	<path fill="#3E3E4B" d="M203.6,117.3c0,2.4,1,4.5,2.7,6c1.7-1.5,2.7-3.6,2.7-6s-1-4.5-2.7-6C204.6,112.8,203.6,114.9,203.6,117.3z"
		/>
</g>
<g>
	<path d="M90.6,171.7c0-1.3,1-2.3,2.3-2.3c1.3,0,2.3,1,2.3,2.3c0,1.3-1,2.3-2.3,2.3C91.6,174,90.6,173,90.6,171.7z M95,171.7
		c0-1.1-0.9-2-2-2c-1.1,0-2,0.9-2,2c0,1.1,0.9,2,2,2C94.1,173.7,95,172.8,95,171.7z M94.1,172.1c-0.1,0.6-0.5,0.9-1.1,0.9
		c-0.8,0-1.3-0.6-1.3-1.3c0-0.8,0.5-1.3,1.3-1.3c0.6,0,1,0.3,1.1,0.9h-0.3c-0.1-0.4-0.4-0.6-0.8-0.6c-0.6,0-1,0.5-1,1
		c0,0.6,0.4,1.1,1,1.1c0.4,0,0.7-0.2,0.8-0.6H94.1z"/>
	<path d="M100.4,173.7v0.3h-2.8l1.7-1.9c0.3-0.4,0.8-0.9,0.8-1.4c0-0.6-0.5-1-1.1-1c-0.6,0-1.1,0.4-1.1,1.1h-0.3
		c0-0.3,0.1-0.6,0.3-0.9c0.3-0.3,0.7-0.5,1.1-0.5c0.8,0,1.4,0.6,1.4,1.3c0,0.6-0.5,1.1-0.9,1.5l-1.3,1.5H100.4z"/>
	<path d="M104.4,171.7c0,0.9-0.5,2.4-1.6,2.4s-1.6-1.4-1.6-2.4c0-0.9,0.5-2.3,1.6-2.3C103.9,169.4,104.4,170.7,104.4,171.7z
		 M104.1,171.7c0-0.7-0.4-2-1.4-2s-1.4,1.3-1.4,2c0,0.8,0.4,2.1,1.4,2.1S104.1,172.5,104.1,171.7z"/>
	<path d="M105.8,169.7l0.1-0.3h0.9v4.5h-0.3v-4.3H105.8z"/>
	<path d="M111.8,172.8v0.3h-0.6v0.9h-0.3v-0.9h-2.4v0l2.7-3.8h0v3.6H111.8z M110.9,170.1L110.9,170.1l-1.9,2.6v0h1.9V170.1z"/>
	<path d="M114.4,169.4h0.8c0.7,0,1.2,0.1,1.7,0.6c0.5,0.4,0.7,1,0.7,1.7c0,0.6-0.2,1.2-0.7,1.7c-0.5,0.5-1,0.6-1.7,0.6h-0.8V169.4z
		 M115.2,173.7c0.6,0,1.1-0.1,1.5-0.5c0.4-0.4,0.6-0.9,0.6-1.4c0-0.6-0.2-1.1-0.7-1.5c-0.4-0.4-0.9-0.5-1.5-0.5h-0.5v4H115.2z"/>
	<path d="M120.2,171.2v1.7c0,0.3,0,0.6-0.2,0.8c-0.2,0.3-0.5,0.4-0.8,0.4c-0.3,0-0.6-0.1-0.8-0.4c-0.2-0.2-0.2-0.5-0.2-0.8v-1.7h0.3
		v1.6c0,0.5,0.1,1,0.7,1c0.7,0,0.7-0.5,0.7-1v-1.6H120.2z"/>
	<path d="M123.2,171.8c-0.3-0.3-0.6-0.4-1-0.4c-0.7,0-1.1,0.6-1.1,1.2c0,0.6,0.5,1.2,1.1,1.2c0.4,0,0.8-0.2,1-0.5v0.4
		c-0.3,0.2-0.6,0.4-1,0.4c-0.8,0-1.4-0.6-1.4-1.5c0-0.8,0.6-1.4,1.4-1.4c0.4,0,0.7,0.1,1,0.3V171.8z"/>
	<path d="M124.3,172.4l1.1-1.2h0.3l-1.2,1.2l1.6,1.6h-0.4l-1.4-1.4l-0.2,0.2v1.2H124V169h0.3V172.4z"/>
	<path d="M128.4,173.9v-4.5h0.9c0.3,0,0.7,0,0.9,0.3c0.3,0.2,0.4,0.6,0.4,0.9c0,0.4-0.2,0.7-0.5,0.9c0.6,0.1,0.9,0.6,0.9,1.1
		c0,0.4-0.1,0.7-0.4,0.9c-0.3,0.3-0.7,0.3-1.1,0.3H128.4z M128.7,171.5h0.5c0.3,0,0.6,0,0.8-0.2s0.3-0.4,0.3-0.7
		c0-0.3-0.1-0.6-0.4-0.7c-0.2-0.1-0.5-0.1-0.8-0.1h-0.5V171.5z M128.7,173.7h0.7c0.3,0,0.6,0,0.9-0.2c0.3-0.2,0.4-0.5,0.4-0.8
		c0-0.3-0.2-0.7-0.5-0.8c-0.3-0.1-0.7-0.1-1-0.1h-0.6V173.7z"/>
	<path d="M132.1,171.5L132.1,171.5c0.1-0.3,0.3-0.4,0.6-0.4c0.1,0,0.2,0,0.3,0.1l-0.1,0.2c-0.1,0-0.1-0.1-0.2-0.1
		c-0.6,0-0.6,0.8-0.6,1.2v1.4h-0.3v-2.8h0.3V171.5z"/>
	<path d="M134,170.3c0,0.1-0.1,0.2-0.2,0.2s-0.2-0.1-0.2-0.2c0-0.1,0.1-0.2,0.2-0.2S134,170.1,134,170.3z M133.8,173.9h-0.3v-2.8
		h0.3V173.9z"/>
	<path d="M137.3,173.8c0,0.4,0,0.8-0.3,1.2c-0.3,0.4-0.7,0.5-1.1,0.5c-0.7,0-1.3-0.4-1.4-1.2h0.3c0,0.6,0.5,0.9,1.1,0.9
		c0.3,0,0.7-0.1,0.9-0.4c0.2-0.3,0.2-0.7,0.2-1v-0.3h0c-0.2,0.3-0.7,0.5-1.1,0.5c-0.8,0-1.3-0.7-1.3-1.5c0-0.8,0.6-1.4,1.4-1.4
		c0.5,0,0.8,0.2,1,0.5h0v-0.5h0.3V173.8z M134.9,172.5c0,0.6,0.4,1.2,1.1,1.2c0.7,0,1.1-0.6,1.1-1.2c0-0.6-0.4-1.1-1.1-1.1
		C135.4,171.4,134.9,171.9,134.9,172.5z"/>
	<path d="M140.7,173.9h-0.3v-0.5h0c-0.2,0.4-0.6,0.6-1.1,0.6c-0.8,0-1.4-0.7-1.4-1.5s0.5-1.4,1.4-1.4c0.4,0,0.8,0.2,1.1,0.5h0v-0.5
		h0.3V173.9z M138.3,172.5c0,0.6,0.4,1.2,1.1,1.2c0.7,0,1.1-0.6,1.1-1.2c0-0.6-0.4-1.1-1.1-1.1C138.7,171.4,138.3,171.9,138.3,172.5
		z"/>
	<path d="M143.8,173.4L143.8,173.4c-0.2,0.4-0.7,0.6-1.1,0.6c-0.8,0-1.4-0.7-1.4-1.5s0.5-1.4,1.4-1.4c0.4,0,0.8,0.2,1.1,0.5h0V169
		h0.3v4.9h-0.3V173.4z M143.8,172.5c0-0.6-0.4-1.1-1.1-1.1c-0.6,0-1.1,0.6-1.1,1.2c0,0.6,0.4,1.2,1.1,1.2
		C143.4,173.8,143.8,173.2,143.8,172.5z"/>
	<path d="M145,172.6c0,0.7,0.5,1.2,1.1,1.2c0.4,0,0.8-0.3,1-0.6l0.2,0.1c-0.3,0.5-0.7,0.7-1.2,0.7c-0.8,0-1.3-0.7-1.3-1.5
		c0-0.8,0.5-1.4,1.3-1.4c0.8,0,1.3,0.7,1.3,1.5H145z M147.1,172.3c-0.1-0.5-0.5-1-1.1-1c-0.6,0-1,0.4-1.1,1H147.1z"/>
	<path d="M96.8,179.7l-0.6,1.5h-0.3l1.9-4.7l1.9,4.7h-0.3l-0.6-1.5H96.8z M97.8,177.2l-0.9,2.2h1.8L97.8,177.2z"/>
	<path d="M100.5,181.1h-0.3v-4.9h0.3V181.1z"/>
	<path d="M101.6,181.1h-0.3v-4.9h0.3V181.1z"/>
	<path d="M106.7,181.1h-0.3l-1.5-2.1h-0.1v2.1h-0.3v-4.5h0.6c0.4,0,0.7,0,1,0.2c0.3,0.2,0.5,0.6,0.5,1c0,0.8-0.5,1.2-1.3,1.2
		L106.7,181.1z M105.1,178.7c0.3,0,0.6,0,0.8-0.2c0.2-0.2,0.3-0.4,0.3-0.7c0-0.3-0.2-0.7-0.5-0.8c-0.2-0.1-0.5-0.1-0.8-0.1h-0.2v1.8
		H105.1z"/>
	<path d="M107.8,177.5c0,0.1-0.1,0.2-0.2,0.2c-0.1,0-0.2-0.1-0.2-0.2c0-0.1,0.1-0.2,0.2-0.2C107.7,177.2,107.8,177.3,107.8,177.5z
		 M107.7,181.1h-0.3v-2.8h0.3V181.1z"/>
	<path d="M111.2,181c0,0.4,0,0.8-0.3,1.2c-0.3,0.4-0.7,0.5-1.1,0.5c-0.7,0-1.3-0.4-1.4-1.2h0.3c0,0.6,0.5,0.9,1.1,0.9
		c0.3,0,0.7-0.1,0.9-0.4c0.2-0.3,0.2-0.7,0.2-1v-0.3h0c-0.2,0.3-0.7,0.5-1.1,0.5c-0.8,0-1.3-0.7-1.3-1.5c0-0.8,0.6-1.4,1.4-1.4
		c0.4,0,0.8,0.2,1,0.5h0v-0.5h0.3V181z M108.8,179.7c0,0.6,0.4,1.2,1.1,1.2c0.7,0,1.1-0.6,1.1-1.2c0-0.6-0.4-1.1-1.1-1.1
		C109.2,178.6,108.8,179.1,108.8,179.7z"/>
	<path d="M112.4,176.2v2.6h0c0.2-0.3,0.5-0.5,0.8-0.5c0.7,0,0.9,0.4,0.9,1.2v1.7h-0.3v-1.7c0-0.5-0.1-0.9-0.7-0.9
		c-0.7,0-0.8,0.6-0.8,1.2v1.4h-0.3v-4.9H112.4z"/>
	<path d="M115.4,181.1h-0.3v-2.5h-0.3v-0.3h0.3v-1h0.3v1h0.5v0.3h-0.5V181.1z"/>
	<path d="M117.5,178.9c-0.1-0.2-0.3-0.3-0.5-0.3c-0.2,0-0.5,0.2-0.5,0.4c0,0.7,1.3,0.3,1.3,1.3c0,0.5-0.4,0.9-0.9,0.9
		c-0.5,0-0.8-0.3-1-0.7l0.3-0.1c0.1,0.3,0.3,0.6,0.7,0.6c0.3,0,0.6-0.3,0.6-0.6c0-0.3-0.3-0.5-0.5-0.5c-0.4-0.1-0.8-0.3-0.8-0.8
		c0-0.4,0.4-0.7,0.8-0.7c0.3,0,0.6,0.2,0.7,0.4L117.5,178.9z"/>
	<path d="M122.7,181.1h-0.3l-1.5-2.1h-0.1v2.1h-0.3v-4.5h0.6c0.4,0,0.7,0,1,0.2c0.3,0.2,0.5,0.6,0.5,1c0,0.8-0.5,1.2-1.3,1.2
		L122.7,181.1z M121.1,178.7c0.3,0,0.6,0,0.8-0.2c0.2-0.2,0.3-0.4,0.3-0.7c0-0.3-0.2-0.7-0.5-0.8c-0.2-0.1-0.5-0.1-0.8-0.1h-0.2v1.8
		H121.1z"/>
	<path d="M123.4,179.8c0,0.7,0.5,1.2,1.1,1.2c0.4,0,0.8-0.3,1-0.6l0.2,0.1c-0.3,0.5-0.7,0.7-1.2,0.7c-0.8,0-1.3-0.7-1.3-1.5
		c0-0.8,0.5-1.4,1.3-1.4c0.8,0,1.3,0.7,1.3,1.5H123.4z M125.5,179.5c-0.1-0.5-0.5-1-1.1-1c-0.6,0-1,0.4-1.1,1H125.5z"/>
	<path d="M127.6,178.9c-0.1-0.2-0.3-0.3-0.5-0.3c-0.2,0-0.5,0.2-0.5,0.4c0,0.7,1.3,0.3,1.3,1.3c0,0.5-0.4,0.9-0.9,0.9
		c-0.5,0-0.8-0.3-1-0.7l0.3-0.1c0.1,0.3,0.3,0.6,0.7,0.6c0.3,0,0.6-0.3,0.6-0.6c0-0.3-0.3-0.5-0.5-0.5c-0.4-0.1-0.8-0.3-0.8-0.8
		c0-0.4,0.4-0.7,0.8-0.7c0.3,0,0.6,0.2,0.7,0.4L127.6,178.9z"/>
	<path d="M128.7,179.8c0,0.7,0.5,1.2,1.1,1.2c0.4,0,0.8-0.3,1-0.6l0.2,0.1c-0.3,0.5-0.7,0.7-1.2,0.7c-0.8,0-1.3-0.7-1.3-1.5
		c0-0.8,0.5-1.4,1.3-1.4c0.8,0,1.3,0.7,1.3,1.5H128.7z M130.8,179.5c-0.1-0.5-0.5-1-1.1-1c-0.6,0-1,0.4-1.1,1H130.8z"/>
	<path d="M132,178.7L132,178.7c0.1-0.3,0.3-0.4,0.6-0.4c0.1,0,0.2,0,0.3,0.1l-0.1,0.2c-0.1,0-0.1-0.1-0.2-0.1
		c-0.6,0-0.6,0.8-0.6,1.2v1.4h-0.3v-2.8h0.3V178.7z"/>
	<path d="M134.5,180.7l1-2.3h0.3l-1.3,2.9l-1.3-2.9h0.3L134.5,180.7z"/>
	<path d="M136.3,179.8c0,0.7,0.5,1.2,1.1,1.2c0.4,0,0.8-0.3,1-0.6l0.2,0.1c-0.3,0.5-0.7,0.7-1.2,0.7c-0.8,0-1.3-0.7-1.3-1.5
		c0-0.8,0.5-1.4,1.3-1.4c0.8,0,1.3,0.7,1.3,1.5H136.3z M138.4,179.5c-0.1-0.5-0.5-1-1.1-1c-0.6,0-1,0.4-1.1,1H138.4z"/>
	<path d="M141.5,180.6L141.5,180.6c-0.2,0.4-0.7,0.6-1.1,0.6c-0.8,0-1.4-0.7-1.4-1.5s0.5-1.4,1.4-1.4c0.4,0,0.8,0.2,1.1,0.5h0v-2.7
		h0.3v4.9h-0.3V180.6z M141.5,179.7c0-0.6-0.4-1.1-1.1-1.1c-0.6,0-1.1,0.6-1.1,1.2c0,0.6,0.4,1.2,1.1,1.2
		C141.1,181,141.5,180.4,141.5,179.7z"/>
</g>
<g>
	<path fill="#1F1E53" d="M20.9,117l-1.1,0.6c-0.2-0.3-0.4-0.5-0.6-0.5c-0.1,0-0.2,0-0.3,0.1s-0.1,0.2-0.1,0.3c0,0.2,0.3,0.4,0.8,0.7
		c0.7,0.3,1.2,0.6,1.4,0.8c0.2,0.3,0.4,0.6,0.4,1c0,0.6-0.2,1-0.6,1.4c-0.4,0.4-0.9,0.5-1.4,0.5c-1,0-1.6-0.5-2-1.4l1.1-0.5
		c0.2,0.3,0.3,0.4,0.4,0.5c0.2,0.1,0.4,0.2,0.6,0.2c0.4,0,0.7-0.2,0.7-0.6c0-0.2-0.2-0.5-0.5-0.7c-0.1-0.1-0.3-0.1-0.4-0.2
		s-0.3-0.1-0.4-0.2c-0.4-0.2-0.7-0.4-0.8-0.6c-0.2-0.2-0.3-0.5-0.3-0.9c0-0.5,0.2-0.9,0.5-1.2c0.3-0.3,0.8-0.5,1.3-0.5
		C20,115.9,20.5,116.3,20.9,117z"/>
	<path fill="#1F1E53" d="M22.2,113.7c0-0.2,0.1-0.4,0.3-0.6s0.4-0.3,0.6-0.3c0.2,0,0.4,0.1,0.6,0.3c0.2,0.2,0.3,0.4,0.3,0.6
		s-0.1,0.4-0.3,0.6c-0.2,0.2-0.4,0.3-0.6,0.3s-0.4-0.1-0.6-0.3S22.2,113.9,22.2,113.7z M23.7,116v5.7h-1.3V116H23.7z"/>
	<path fill="#1F1E53" d="M29.6,111.8h1.3v9.9h-1.3v-0.6c-0.5,0.5-1.1,0.8-1.8,0.8c-0.8,0-1.4-0.3-1.9-0.9c-0.5-0.6-0.8-1.3-0.8-2.2
		c0-0.9,0.3-1.6,0.8-2.1c0.5-0.6,1.1-0.9,1.9-0.9c0.7,0,1.3,0.3,1.8,0.8V111.8z M26.5,118.9c0,0.5,0.1,1,0.4,1.3
		c0.3,0.3,0.7,0.5,1.1,0.5c0.5,0,0.9-0.2,1.2-0.5c0.3-0.3,0.5-0.8,0.5-1.3s-0.2-1-0.5-1.3c-0.3-0.3-0.7-0.5-1.2-0.5
		c-0.5,0-0.8,0.2-1.1,0.5C26.6,117.9,26.5,118.4,26.5,118.9z"/>
	<path fill="#1F1E53" d="M37.8,119.2h-4.1c0,0.5,0.2,0.8,0.5,1.1c0.3,0.3,0.6,0.4,1,0.4c0.3,0,0.6-0.1,0.8-0.2
		c0.2-0.2,0.5-0.4,0.7-0.9l1.1,0.6c-0.2,0.3-0.4,0.5-0.5,0.8s-0.4,0.4-0.6,0.5s-0.5,0.2-0.7,0.3s-0.5,0.1-0.8,0.1
		c-0.9,0-1.5-0.3-2.1-0.8c-0.5-0.6-0.8-1.3-0.8-2.2c0-0.9,0.2-1.6,0.8-2.2c0.5-0.6,1.2-0.8,2-0.8c0.8,0,1.5,0.3,2,0.8
		c0.5,0.5,0.7,1.3,0.7,2.2L37.8,119.2z M36.4,118.1c-0.2-0.7-0.6-1.1-1.3-1.1c-0.2,0-0.3,0-0.5,0.1s-0.3,0.1-0.4,0.2
		s-0.2,0.2-0.3,0.3s-0.1,0.3-0.2,0.4H36.4z"/>
	<path fill="#1F1E53" d="M44.3,111.8v4.9c0.5-0.5,1.1-0.8,1.8-0.8c0.8,0,1.4,0.3,1.9,0.9c0.5,0.6,0.8,1.3,0.8,2.1
		c0,0.9-0.3,1.6-0.8,2.2c-0.5,0.6-1.2,0.9-1.9,0.9c-0.7,0-1.2-0.3-1.8-0.8v0.6h-1.3v-9.9H44.3z M47.4,118.9c0-0.5-0.1-1-0.4-1.3
		c-0.3-0.4-0.7-0.5-1.1-0.5c-0.5,0-0.9,0.2-1.2,0.5c-0.3,0.3-0.5,0.8-0.5,1.3c0,0.6,0.1,1,0.4,1.3c0.3,0.3,0.7,0.5,1.2,0.5
		c0.5,0,0.8-0.2,1.1-0.5C47.2,119.9,47.4,119.4,47.4,118.9z"/>
</g>
</svg>
