<?xml version="1.0" encoding="utf-8"?>
<!-- Generator: Adobe Illustrator 18.0.0, SVG Export Plug-In . SVG Version: 6.00 Build 0)  -->
<!DOCTYPE svg PUBLIC "-//W3C//DTD SVG 1.1//EN" "http://www.w3.org/Graphics/SVG/1.1/DTD/svg11.dtd">
<svg version="1.1" id="Layer_1" xmlns="http://www.w3.org/2000/svg" xmlns:xlink="http://www.w3.org/1999/xlink" x="0px" y="0px"
	 viewBox="0 0 477.5 477.6" enable-background="new 0 0 477.5 477.6" xml:space="preserve">
<g>
	<g id="layer1">
		<path id="path2178" fill="#010101" d="M233.9,0C104.8,0,0,104.8,0,233.9c0,129.1,104.8,233.9,233.9,233.9s233.9-104.8,233.9-233.9
			S362.9,0,233.9,0z M232.3,221.8c5.8,0,10.5,4.7,10.5,10.5s-4.7,10.5-10.5,10.5s-10.5-4.7-10.5-10.5S226.5,221.8,232.3,221.8z"/>
		
			<radialGradient id="path3189_1_" cx="70.6565" cy="797.8333" r="90.8494" gradientTransform="matrix(1.1233 0 0 1.1233 296.0604 -524.0852)" gradientUnits="userSpaceOnUse">
			<stop  offset="0" style="stop-color:#FFFFFF;stop-opacity:0.3093"/>
			<stop  offset="1" style="stop-color:#CBEBF1;stop-opacity:0"/>
		</radialGradient>
		<path id="path3189" opacity="0.5" fill="url(#path3189_1_)" enable-background="new    " d="M375.4,273.5c-3.9,0-7.8,0.2-11.6,0.6
			c-13.2,42.8-47,76.5-89.8,89.7c-0.4,3.8-0.7,7.7-0.7,11.7c0,56.3,45.7,102,102,102s102-45.7,102-102S431.8,273.5,375.4,273.5z"/>
		
			<radialGradient id="path3171_1_" cx="115.312" cy="502.856" r="90.8494" gradientTransform="matrix(1.4977 0 0 -1.4977 -92.0788 839.0581)" gradientUnits="userSpaceOnUse">
			<stop  offset="0" style="stop-color:#FFFFFF;stop-opacity:0.3093"/>
			<stop  offset="1" style="stop-color:#CBEBF1;stop-opacity:0"/>
		</radialGradient>
		<path id="path3171" fill="url(#path3171_1_)" d="M190.1,4.1C96.2,21.9,22.1,96,4.2,189.9c20,34.5,54.6,59.5,95.5,66.3
			c-1.2-7.3-1.8-14.7-1.8-22.3c0-75.1,61-136.1,136.1-136.1c7.6,0,15.1,0.6,22.4,1.8C249.6,58.8,224.6,24.1,190.1,4.1z M232.3,221
			c-6.2,0-11.3,5-11.3,11.3c0,0.8,0.1,1.6,0.3,2.4c0.4-0.2,0.9-0.4,1.3-0.6c-0.1-0.6-0.2-1.2-0.2-1.8c0-5.4,4.4-9.8,9.8-9.8
			c0.6,0,1.2,0.1,1.8,0.2c0.2-0.4,0.4-0.9,0.6-1.3C233.9,221.1,233.1,221,232.3,221z"/>
		<path id="path3325" fill="#010101" d="M233.9,0C104.8,0,0,104.8,0,233.9c0,129.1,104.8,233.9,233.9,233.9s233.9-104.8,233.9-233.9
			S362.9,0,233.9,0z M233.9,7.7c124.9,0,226.2,101.3,226.2,226.2S358.7,460.1,233.9,460.1S7.7,358.7,7.7,233.9S109,7.7,233.9,7.7z"
			/>
		<path id="path3332" fill="none" stroke="#F1F0F8" stroke-opacity="3.921569e-02" d="M321.7,324.4c-48.5,49.1-129.7,49.2-178.5,0.5
			c-49.1-49-49.2-131.1-0.5-180.4c49-49.6,131.2-49.8,180.6-0.5c49.7,49.6,49.8,132.7,0.5,182.6c-49.6,50.2-132.8,50.3-182.7,0.5
			c-50.3-50.1-50.4-134.2-0.5-184.7c50.2-50.8,134.3-50.9,184.8-0.5c50.8,50.7,51,135.8,0.5,186.8c-50.8,51.4-135.9,51.5-186.9,0.5
			c-51.4-51.3-51.5-137.3-0.5-189c51.3-52,137.4-52.1,189.1-0.5c52,51.9,52.1,138.9,0.5,191.1c-51.9,52.6-139,52.7-191.3,0.5
			c-52.6-52.5-52.7-140.5-0.5-193.3c52.5-53.2,140.6-53.3,193.5-0.5c53.2,53.1,53.3,142.1,0.5,195.6
			c-53.1,53.8-142.2,53.9-195.7,0.6c-53.8-53.7-53.9-143.7-0.6-197.8c53.7-54.4,143.8-54.5,197.9-0.6c54.4,54.3,54.6,145.4,0.6,200
			c-54.3,55-145.5,55.1-200.2,0.6c-55-54.9-55.2-147-0.6-202.3c55-55.6,147.1-55.8,202.4-0.6c55.7,55.6,55.8,148.7,0.6,204.6
			c-55.6,56.3-148.8,56.4-204.7,0.6c-56.3-56.2-56.4-150.4-0.6-206.9c56.2-56.9,150.5-57,207-0.6c56.9,56.8,57.1,152.1,0.6,209.2
			c-56.8,57.5-152.2,57.7-209.4,0.6C70.2,283,70,186.7,127.2,128.9c57.5-58.2,153.9-58.3,211.7-0.6c58.2,58.1,58.3,155.5,0.6,214
			c-58.1,58.8-155.6,59-214.1,0.6c-58.9-58.7-59-157.2-0.6-216.4c58.8-59.5,157.3-59.6,216.5-0.6c59.5,59.4,59.6,159,0.6,218.8
			c-59.4,60.1-159.1,60.3-218.9,0.6c-60.2-60.1-60.3-160.8-0.6-221.2c60.1-60.8,160.8-60.9,221.3-0.6c60.8,60.7,61,162.5,0.6,223.6
			c-60.8,61.5-162.6,61.6-223.7,0.6c-61.5-61.4-61.7-164.3-0.6-226.1c61.4-62.2,164.4-62.3,226.2-0.6
			c62.2,62.1,62.3,166.1,0.6,228.6c-62.1,62.8-166.2,63-228.7,0.6c-62.9-62.8-63-168-0.6-231.1c62.8-63.5,168-63.7,231.2-0.6
			c63.6,63.4,63.7,169.8,0.6,233.6c-63.5,64.2-169.9,64.4-233.7,0.6c-64.3-64.1-64.4-171.7-0.6-236.2
			c64.2-64.9,171.7-65.1,236.3-0.6c65,64.8,65.1,173.5,0.6,238.8c-64.9,65.6-173.6,65.8-238.9,0.6c-65.7-65.5-65.8-175.4-0.6-241.4
			c65.6-66.3,175.5-66.5,241.4-0.6c66.4,66.3,66.5,177.3,0.6,244c-66.3,67.1-177.4,67.2-244.1,0.7c-67.1-67-67.2-179.2-0.7-246.6
			c67-67.8,179.3-67.9,246.7-0.7c67.8,67.7,68,181.2,0.7,249.3c-67.7,68.5-181.2,68.7-249.3,0.7C39.2,292.2,39,177.5,107,108.7
			c68.4-69.2,183.2-69.4,252-0.7c69.3,69.2,69.4,185.1,0.7,254.6c-69.2,70-185.1,70.1-254.7,0.7c-70-69.9-70.2-187.1-0.7-257.4
			c69.9-70.7,187.1-70.9,257.4-0.7c70.8,70.6,70.9,189.1,0.7,260.1c-70.7,71.5-189.1,71.6-260.2,0.7
			c-71.5-71.4-71.7-191.1-0.7-262.9C173,31,292.7,30.8,364.5,102.5c72.3,72.1,72.4,193.1,0.7,265.7c-72.2,73-193.1,73.2-265.7,0.7
			c-73-72.9-73.2-195.1-0.7-268.5c72.9-73.8,195.2-73.9,268.5-0.7c73.8,73.7,74,197.2,0.7,271.3c-73.7,74.6-197.2,74.7-271.4,0.7
			C22.1,297.3,22,172.4,96,97.6c74.5-75.3,199.3-75.5,274.2-0.7c75.4,75.2,75.5,201.4,0.7,277c-75.2,76.1-201.4,76.3-277.1,0.7
			c-76.1-76-76.3-203.5-0.7-279.9c76-76.9,203.5-77.1,280-0.7c76.9,76.8,77.1,205.6,0.7,282.9c-76.8,77.7-205.6,77.9-282.9,0.7
			C13.2,299.9,13,169.8,90.2,91.7C167.8,13.2,297.9,13,376,91c78.5,78.4,78.7,209.9,0.7,288.8c-78.4,79.3-209.9,79.5-288.8,0.7
			C8.6,301.3,8.4,168.4,87.2,88.7C166.4,8.6,299.3,8.4,379,88c80.2,80.1,80.3,214.3,0.7,294.8c-80.1,81-214.3,81.2-294.8,0.8
			c-81-80.9-81.2-216.5-0.8-297.8C165.1,3.9,300.7,3.7,382,85c81.8,81.7,82,218.7,0.8,300.9c-81.7,82.7-218.7,82.8-300.9,0.8
			C-0.8,304-1,165.7,81.1,82.6c82.6-83.5,220.9-83.7,304-0.8c83.5,83.4,83.7,223.2,0.8,307.1c-83.4,84.4-223.2,84.5-307.1,0.8
			C-5.6,305.5-5.7,164.2,78,79.5c84.3-85.2,225.5-85.4,310.2-0.8c85.2,85.1,85.4,227.8,0.8,313.3c-85.1,86.1-227.8,86.3-313.4,0.8
			c-86.1-86-86.3-230.1-0.8-316.5c86-87,230.1-87.1,316.5-0.8c87,86.8,87.1,232.4,0.8,319.7c-86.8,87.8-232.4,88-319.7,0.8
			c-87.8-87.7-88-234.7-0.8-323c87.7-88.7,234.7-88.9,323-0.8c88.7,88.6,88.9,237.1,0.8,326.2"/>
		<path id="path3193" fill="#A6C6E0" d="M233.9,114.8c-65.7,0-119.1,53.3-119.1,119.1c0,65.7,53.3,119.1,119.1,119.1
			s119.1-53.3,119.1-119.1S299.6,114.8,233.9,114.8z M232.3,222.4c5.4,0,9.8,4.4,9.8,9.8s-4.4,9.8-9.8,9.8s-9.8-4.4-9.8-9.8
			S226.9,222.4,232.3,222.4z"/>
		<path id="path3374" fill="none" stroke="#010101" stroke-opacity="0.4973" d="M320.2,324.4c-48.5,49.1-129.7,49.2-178.5,0.5
			c-49.1-49-49.2-131.1-0.5-180.4c49-49.6,131.2-49.8,180.6-0.5c49.7,49.6,49.8,132.7,0.5,182.6c-49.6,50.2-132.8,50.3-182.7,0.5
			c-50.3-50.1-50.4-134.2-0.5-184.7c50.2-50.8,134.3-50.9,184.8-0.5c50.8,50.7,51,135.8,0.5,186.8c-50.8,51.4-135.9,51.5-186.9,0.5
			c-51.4-51.3-51.5-137.3-0.5-189c51.3-52,137.4-52.1,189.1-0.5c52,51.9,52.1,138.9,0.5,191.1c-51.9,52.6-139,52.7-191.3,0.5
			c-52.6-52.5-52.7-140.5-0.5-193.3c52.5-53.2,140.6-53.3,193.5-0.5c53.2,53.1,53.3,142.1,0.5,195.6
			c-53.1,53.8-142.2,53.9-195.7,0.6c-53.8-53.7-53.9-143.7-0.6-197.8c53.7-54.4,143.8-54.5,197.9-0.6c54.4,54.3,54.6,145.4,0.6,200
			c-54.3,55-145.5,55.1-200.2,0.6c-55-54.9-55.2-147-0.6-202.3c55-55.6,147.1-55.8,202.4-0.6c55.7,55.6,55.8,148.7,0.6,204.6
			c-55.6,56.3-148.8,56.4-204.7,0.6C72.3,282,72.1,187.8,128,131.2c56.2-56.9,150.5-57,207-0.6c56.9,56.8,57.1,152.1,0.6,209.2
			c-56.8,57.5-152.2,57.7-209.4,0.6c-57.6-57.5-57.7-153.8-0.6-211.6c57.5-58.2,153.9-58.3,211.7-0.6c58.2,58.1,58.3,155.5,0.6,214
			c-58.1,58.8-155.6,59-214.1,0.6c-58.9-58.7-59-157.2-0.6-216.4c58.8-59.5,157.3-59.6,216.5-0.6c59.5,59.4,59.6,159,0.6,218.8
			c-59.4,60.1-159.1,60.3-218.9,0.6c-60.2-60.1-60.3-160.8-0.6-221.2c60.1-60.8,160.8-60.9,221.3-0.6c60.8,60.7,61,162.5,0.6,223.6
			c-60.8,61.5-162.6,61.6-223.7,0.6c-61.5-61.4-61.7-164.3-0.6-226.1c61.4-62.2,164.4-62.3,226.2-0.6
			c62.2,62.1,62.3,166.1,0.6,228.6c-62.1,62.8-166.2,63-228.7,0.6c-62.9-62.8-63-168-0.6-231.1c62.8-63.5,168-63.7,231.2-0.6
			c63.6,63.4,63.7,169.8,0.6,233.6c-63.5,64.2-169.9,64.4-233.7,0.6c-64.3-64.1-64.4-171.7-0.6-236.2
			c64.2-64.9,171.7-65.1,236.3-0.6c65,64.8,65.1,173.5,0.6,238.8c-64.9,65.6-173.6,65.8-238.9,0.6c-65.7-65.5-65.8-175.4-0.6-241.4
			c65.6-66.3,175.5-66.5,241.4-0.6c66.4,66.3,66.5,177.3,0.6,244c-66.3,67.1-177.4,67.2-244.1,0.7c-67.1-67-67.2-179.2-0.7-246.6
			c67-67.8,179.3-67.9,246.7-0.7c67.8,67.7,68,181.2,0.7,249.3c-67.7,68.5-181.2,68.7-249.3,0.7c-68.5-68.4-68.7-183.1-0.7-251.9
			c68.4-69.2,183.2-69.4,252-0.7c69.3,69.2,69.4,185.1,0.7,254.6c-69.2,70-185.1,70.1-254.7,0.7c-70-69.9-70.2-187.1-0.7-257.4
			c69.9-70.7,187.1-70.9,257.4-0.7c70.8,70.6,70.9,189.1,0.7,260.1c-70.7,71.5-189.1,71.6-260.2,0.7
			c-71.5-71.4-71.7-191.1-0.7-262.9C171.5,31,291.2,30.8,363,102.5c72.3,72.1,72.4,193.1,0.7,265.7c-72.2,73-193.1,73.2-265.7,0.7
			C25,296,24.8,173.7,97.3,100.4c72.9-73.8,195.2-73.9,268.5-0.7c73.8,73.7,74,197.2,0.7,271.3c-73.7,74.6-197.2,74.7-271.4,0.7
			c-74.6-74.5-74.7-199.3-0.7-274.2c74.5-75.3,199.3-75.5,274.2-0.7c75.4,75.2,75.5,201.4,0.7,277C294.1,450,168,450.2,92.3,374.6
			c-76.1-76-76.3-203.5-0.7-279.9c76-76.9,203.5-77.1,280-0.7c76.9,76.8,77.1,205.6,0.7,282.9c-76.8,77.7-205.6,77.9-282.9,0.7
			c-77.7-77.6-77.9-207.7-0.7-285.8C166.3,13.2,296.4,13,374.5,91c78.5,78.4,78.7,209.9,0.7,288.8c-78.4,79.3-209.9,79.5-288.8,0.7
			C7.1,301.3,6.9,168.4,85.7,88.7C164.9,8.6,297.8,8.4,377.5,88c80.2,80.1,80.3,214.3,0.7,294.8c-80.1,81-214.3,81.2-294.8,0.8
			c-81-80.9-81.2-216.5-0.8-297.8c80.9-81.8,216.5-82,297.8-0.8c81.8,81.7,82,218.7,0.8,300.9c-81.7,82.7-218.7,82.8-300.9,0.8
			C-2.3,304-2.5,165.7,79.6,82.6c82.6-83.5,220.9-83.7,304-0.8c83.5,83.4,83.7,223.2,0.8,307.1c-83.4,84.4-223.2,84.5-307.1,0.8
			C-7.1,305.5-7.3,164.2,76.5,79.5C160.8-5.7,302-5.9,386.7,78.7c85.2,85.1,85.4,227.8,0.8,313.3c-85.1,86.1-227.8,86.3-313.4,0.8
			c-86.1-86-86.3-230.1-0.8-316.5c86-87,230.1-87.1,316.5-0.8c87,86.8,87.1,232.4,0.8,319.7c-86.8,87.8-232.4,88-319.7,0.8
			c-87.8-87.7-88-234.7-0.8-323c87.7-88.7,234.7-88.9,323-0.8c88.7,88.6,88.9,237.1,0.8,326.2"/>
		
			<linearGradient id="path3334_1_" gradientUnits="userSpaceOnUse" x1="-76.44" y1="513.9437" x2="10.0686" y2="427.8787" gradientTransform="matrix(1.7862 0 0 -1.7954 251.0673 1037.2744)">
			<stop  offset="0" style="stop-color:#FFFFFF"/>
			<stop  offset="1" style="stop-color:#FFFFFF;stop-opacity:0"/>
		</linearGradient>
		
			<path id="path3334" fill="none" stroke="url(#path3334_1_)" stroke-width="1.2564" stroke-linecap="round" stroke-opacity="0.251" d="
			M352.2,233.9c0,65.3-52.9,118.3-118.3,118.4c-65.3,0-118.3-52.9-118.4-118.3c0,0,0,0,0-0.1c0-65.3,52.9-118.3,118.3-118.4
			C299.2,115.5,352.2,168.4,352.2,233.9C352.2,233.8,352.2,233.8,352.2,233.9z"/>
		
			<linearGradient id="path3346_1_" gradientUnits="userSpaceOnUse" x1="57.3867" y1="380.8033" x2="10.1133" y2="427.8342" gradientTransform="matrix(1.7862 0 0 -1.7954 251.0673 1037.2744)">
			<stop  offset="0" style="stop-color:#010101;stop-opacity:0.5059"/>
			<stop  offset="1" style="stop-color:#010101;stop-opacity:0"/>
		</linearGradient>
		
			<path id="path3346" fill="none" stroke="url(#path3346_1_)" stroke-width="2.5128" stroke-linecap="round" stroke-opacity="0.251" d="
			M352.2,233.9c0,65.3-52.9,118.3-118.3,118.4c-65.3,0-118.3-52.9-118.4-118.3c0,0,0,0,0-0.1c0-65.3,52.9-118.3,118.3-118.4
			C299.2,115.5,352.2,168.4,352.2,233.9C352.2,233.8,352.2,233.8,352.2,233.9z"/>
		
			<linearGradient id="path2280_1_" gradientUnits="userSpaceOnUse" x1="226.0682" y1="378.2114" x2="236.6378" y2="367.1171" gradientTransform="matrix(1.0746 0 0 -1.0238 -21.4313 608.7292)">
			<stop  offset="0" style="stop-color:#010101"/>
			<stop  offset="1" style="stop-color:#010101;stop-opacity:0"/>
		</linearGradient>
		<path id="path2280" fill="none" stroke="url(#path2280_1_)" stroke-width="1.7311" stroke-opacity="0.251" d="M242.2,232.3
			c0,5.5-4.4,9.9-9.9,9.9c-5.5,0-9.9-4.4-9.9-9.9s4.4-9.9,9.9-9.9C237.8,222.4,242.2,226.8,242.2,232.3L242.2,232.3z"/>
		
			<linearGradient id="path3376_1_" gradientUnits="userSpaceOnUse" x1="246.177" y1="357.1043" x2="236.6378" y2="367.1171" gradientTransform="matrix(1.0746 0 0 -1.0238 -21.4313 608.7292)">
			<stop  offset="0" style="stop-color:#FFFFFF"/>
			<stop  offset="1" style="stop-color:#FFFFFF;stop-opacity:0"/>
		</linearGradient>
		<path id="path3376" fill="none" stroke="url(#path3376_1_)" stroke-width="1.7311" stroke-opacity="0.251" d="M242.2,232.3
			c0,5.5-4.4,9.9-9.9,9.9c-5.5,0-9.9-4.4-9.9-9.9s4.4-9.9,9.9-9.9C237.8,222.4,242.2,226.8,242.2,232.3L242.2,232.3z"/>
	</g>
	<g id="layer3">
		<path id="path3273" fill="none" stroke="#FFFFFF" stroke-width="1.0896" stroke-linecap="round" stroke-opacity="0.3765" d="
			M345.4,233.9c0,61.6-49.9,111.6-111.5,111.6s-111.6-49.9-111.6-111.5c0,0,0,0,0-0.1c0-61.6,49.9-111.6,111.5-111.6
			C295.4,122.3,345.4,172.2,345.4,233.9C345.4,233.8,345.4,233.8,345.4,233.9z"/>
	</g>
</g>
</svg>
